<svg width="18" height="14" viewBox="0 0 18 14" fill="none" xmlns="http://www.w3.org/2000/svg">
<path d="M15.2467 1.28575C14.1032 0.770043 12.8775 0.388871 11.5957 0.172127C11.5843 0.169935 11.5725 0.171348 11.5619 0.176168C11.5513 0.180989 11.5425 0.188979 11.5366 0.199033C11.3797 0.474822 11.2048 0.834319 11.0822 1.11833C9.72278 0.915215 8.34071 0.915215 6.98127 1.11833C6.84474 0.803572 6.69079 0.496664 6.52012 0.199033C6.51434 0.188856 6.50559 0.180684 6.49504 0.17561C6.48449 0.170535 6.47264 0.168799 6.46108 0.170632C5.18005 0.387377 3.95432 0.768548 2.81006 1.285C2.80021 1.28913 2.79187 1.29617 2.78614 1.30518C0.460244 4.72451 -0.177284 8.05939 0.135875 11.3524C0.136746 11.3605 0.13925 11.3683 0.143233 11.3753C0.147216 11.3824 0.152596 11.3886 0.159044 11.3935C1.51661 12.3819 3.03079 13.1348 4.63818 13.6208C4.64939 13.6242 4.66137 13.6242 4.67257 13.6207C4.68377 13.6173 4.69367 13.6105 4.70096 13.6013C5.04626 13.1379 5.35419 12.6484 5.61727 12.1342C5.63297 12.1043 5.61802 12.0684 5.58663 12.0565C5.10381 11.8746 4.63601 11.6552 4.1875 11.4002C4.17945 11.3956 4.17265 11.3891 4.16774 11.3812C4.16283 11.3734 4.15995 11.3644 4.15935 11.3551C4.15876 11.3459 4.16048 11.3366 4.16435 11.3282C4.16822 11.3198 4.17412 11.3124 4.18153 11.3068C4.2757 11.2373 4.36987 11.1648 4.45956 11.0923C4.46763 11.0858 4.47735 11.0816 4.48765 11.0803C4.49794 11.079 4.5084 11.0806 4.51785 11.0848C7.45287 12.4032 10.6315 12.4032 13.5322 11.0848C13.5417 11.0803 13.5522 11.0786 13.5627 11.0797C13.5731 11.0809 13.583 11.085 13.5912 11.0916C13.6809 11.1648 13.7743 11.2373 13.8693 11.3068C13.8767 11.3123 13.8827 11.3195 13.8867 11.3279C13.8907 11.3363 13.8926 11.3455 13.8921 11.3547C13.8917 11.364 13.889 11.373 13.8842 11.3809C13.8794 11.3889 13.8727 11.3955 13.8648 11.4002C13.4178 11.6573 12.953 11.8748 12.4649 12.0557C12.4574 12.0584 12.4506 12.0627 12.4449 12.0683C12.4392 12.0739 12.4347 12.0806 12.4318 12.088C12.4289 12.0954 12.4276 12.1034 12.4281 12.1114C12.4285 12.1193 12.4306 12.1271 12.4343 12.1342C12.7033 12.6476 13.0113 13.1364 13.3498 13.6006C13.3569 13.6101 13.3667 13.6172 13.3779 13.621C13.3891 13.6247 13.4013 13.6249 13.4126 13.6215C15.0228 13.1369 16.5394 12.3836 17.8985 11.3935C17.9051 11.3889 17.9107 11.3829 17.9148 11.3759C17.9189 11.369 17.9215 11.3612 17.9224 11.3532C18.2961 7.54593 17.2961 4.23796 15.2699 1.30667C15.2649 1.29715 15.2567 1.28972 15.2467 1.28575ZM6.05599 9.34715C5.17257 9.34715 4.44386 8.54818 4.44386 7.56835C4.44386 6.58777 5.15837 5.78955 6.05599 5.78955C6.96034 5.78955 7.68232 6.59449 7.66812 7.56835C7.66812 8.54893 6.95361 9.34715 6.05599 9.34715ZM12.0165 9.34715C11.1323 9.34715 10.4043 8.54818 10.4043 7.56835C10.4043 6.58777 11.1181 5.78955 12.0165 5.78955C12.9208 5.78955 13.6428 6.59449 13.6286 7.56835C13.6286 8.54893 12.9216 9.34715 12.0165 9.34715Z" fill="white"/>
</svg>
