<svg width="33" height="25" viewBox="0 0 33 25" fill="none" xmlns="http://www.w3.org/2000/svg">
<path d="M27.9418 2.13431C25.8406 1.18671 23.5884 0.486304 21.2331 0.088036C21.2121 0.0840092 21.1904 0.0866042 21.171 0.0954621C21.1515 0.10432 21.1353 0.119002 21.1246 0.137476C20.8362 0.644238 20.5148 1.30481 20.2896 1.82668C17.7916 1.45346 15.2521 1.45346 12.7541 1.82668C12.5032 1.24832 12.2203 0.684373 11.9067 0.137476C11.8961 0.118775 11.88 0.10376 11.8606 0.0944359C11.8413 0.0851114 11.8195 0.0819205 11.7983 0.0852891C9.44435 0.483557 7.19207 1.18396 5.08949 2.13294C5.0714 2.14052 5.05607 2.15346 5.04554 2.17002C0.771712 8.45304 -0.399746 14.5809 0.175683 20.6318C0.177284 20.6466 0.181884 20.661 0.189204 20.674C0.196523 20.6869 0.206407 20.6983 0.218257 20.7073C2.71278 22.5235 5.49509 23.907 8.44868 24.7999C8.46927 24.8062 8.49129 24.8062 8.51187 24.7998C8.53245 24.7935 8.55063 24.781 8.56404 24.7642C9.19852 23.9127 9.76433 23.0132 10.2478 22.0683C10.2766 22.0134 10.2491 21.9475 10.1914 21.9255C9.30427 21.5914 8.44467 21.1882 7.62055 20.7197C7.60574 20.7113 7.59327 20.6993 7.58424 20.6848C7.57521 20.6703 7.56991 20.6538 7.56882 20.6368C7.56773 20.6198 7.57089 20.6028 7.578 20.5873C7.58511 20.5718 7.59596 20.5583 7.60957 20.548C7.78261 20.4203 7.95565 20.2871 8.12045 20.1539C8.13528 20.1419 8.15315 20.1343 8.17206 20.1319C8.19098 20.1294 8.21019 20.1323 8.22757 20.1402C13.6207 22.5627 19.4615 22.5627 24.7914 20.1402C24.8088 20.1318 24.8282 20.1286 24.8474 20.1308C24.8666 20.133 24.8848 20.1405 24.8999 20.1525C25.0647 20.2871 25.2364 20.4203 25.4108 20.548C25.4245 20.5581 25.4356 20.5714 25.4429 20.5868C25.4502 20.6021 25.4536 20.6191 25.4528 20.6361C25.452 20.6531 25.447 20.6696 25.4382 20.6842C25.4294 20.6988 25.4172 20.711 25.4025 20.7197C24.5813 21.1921 23.7271 21.5918 22.8303 21.9241C22.8165 21.9291 22.804 21.937 22.7935 21.9472C22.783 21.9575 22.7748 21.9698 22.7695 21.9835C22.7642 21.9971 22.7618 22.0117 22.7626 22.0264C22.7633 22.041 22.7672 22.0553 22.774 22.0683C23.2684 23.0118 23.8342 23.91 24.4563 24.7628C24.4692 24.7803 24.4873 24.7934 24.5079 24.8003C24.5286 24.8072 24.5508 24.8075 24.5717 24.8013C27.5303 23.9108 30.3172 22.5267 32.8145 20.7073C32.8266 20.6988 32.8369 20.6878 32.8444 20.675C32.852 20.6622 32.8568 20.648 32.8584 20.6332C33.5451 13.6374 31.7075 7.559 27.9844 2.17276C27.9753 2.15526 27.9602 2.14162 27.9418 2.13431ZM11.0539 16.9471C9.43061 16.9471 8.09161 15.479 8.09161 13.6786C8.09161 11.8768 9.40452 10.41 11.0539 10.41C12.7156 10.41 14.0423 11.8891 14.0162 13.6786C14.0162 15.4804 12.7033 16.9471 11.0539 16.9471ZM22.0063 16.9471C20.3816 16.9471 19.044 15.479 19.044 13.6786C19.044 11.8768 20.3555 10.41 22.0063 10.41C23.668 10.41 24.9947 11.8891 24.9686 13.6786C24.9686 15.4804 23.6694 16.9471 22.0063 16.9471Z" fill="white"/>
</svg>
