<svg width="18" height="18" viewBox="0 0 18 18" fill="none" xmlns="http://www.w3.org/2000/svg">
<path d="M8.77751 5.85189C7.16534 5.85189 5.84969 7.16754 5.84969 8.7797C5.84969 10.3919 7.16534 11.7075 8.77751 11.7075C10.3897 11.7075 11.7053 10.3919 11.7053 8.7797C11.7053 7.16754 10.3897 5.85189 8.77751 5.85189ZM17.5588 8.7797C17.5588 7.56729 17.5697 6.36585 17.5016 5.15563C17.4336 3.74993 17.1129 2.50236 16.085 1.47444C15.0548 0.444328 13.8095 0.125849 12.4038 0.0577599C11.1914 -0.0103288 9.98993 0.000653309 8.7797 0.000653309C7.56729 0.000653309 6.36585 -0.0103288 5.15563 0.0577599C3.74993 0.125849 2.50236 0.446524 1.47444 1.47444C0.444328 2.50456 0.125849 3.74993 0.0577599 5.15563C-0.0103288 6.36805 0.000653309 7.56948 0.000653309 8.7797C0.000653309 9.98993 -0.0103288 11.1936 0.0577599 12.4038C0.125849 13.8095 0.446525 15.057 1.47444 16.085C2.50456 17.1151 3.74993 17.4336 5.15563 17.5016C6.36805 17.5697 7.56948 17.5588 8.7797 17.5588C9.99212 17.5588 11.1936 17.5697 12.4038 17.5016C13.8095 17.4336 15.057 17.1129 16.085 16.085C17.1151 15.0548 17.4336 13.8095 17.5016 12.4038C17.5719 11.1936 17.5588 9.99212 17.5588 8.7797ZM8.77751 13.2845C6.28458 13.2845 4.27267 11.2726 4.27267 8.7797C4.27267 6.28678 6.28458 4.27487 8.77751 4.27487C11.2704 4.27487 13.2823 6.28678 13.2823 8.7797C13.2823 11.2726 11.2704 13.2845 8.77751 13.2845ZM13.4668 5.14245C12.8848 5.14245 12.4148 4.67242 12.4148 4.09037C12.4148 3.50832 12.8848 3.03829 13.4668 3.03829C14.0489 3.03829 14.5189 3.50832 14.5189 4.09037C14.5191 4.22858 14.492 4.36547 14.4392 4.49319C14.3864 4.62091 14.3089 4.73696 14.2112 4.83469C14.1134 4.93242 13.9974 5.00991 13.8697 5.06272C13.7419 5.11553 13.6051 5.14262 13.4668 5.14245Z" fill="white"/>
</svg>
