<svg width="33" height="33" viewBox="0 0 33 33" fill="none" xmlns="http://www.w3.org/2000/svg">
<path d="M16.1287 10.8505C13.1663 10.8505 10.7488 13.268 10.7488 16.2304C10.7488 19.1927 13.1663 21.6102 16.1287 21.6102C19.091 21.6102 21.5085 19.1927 21.5085 16.2304C21.5085 13.268 19.091 10.8505 16.1287 10.8505ZM32.2642 16.2304C32.2642 14.0025 32.2844 11.7949 32.1593 9.57112C32.0342 6.98814 31.4449 4.69575 29.5561 2.80695C27.6633 0.914109 25.3749 0.328903 22.7919 0.20379C20.5641 0.0786771 18.3565 0.0988567 16.1327 0.0988567C13.9049 0.0988567 11.6972 0.0786771 9.47347 0.20379C6.89049 0.328903 4.59809 0.918145 2.70929 2.80695C0.816453 4.69979 0.231247 6.98814 0.106134 9.57112C-0.0189791 11.7989 0.00120046 14.0066 0.00120046 16.2304C0.00120046 18.4541 -0.0189791 20.6658 0.106134 22.8896C0.231247 25.4726 0.820489 27.765 2.70929 29.6538C4.60213 31.5466 6.89049 32.1318 9.47347 32.2569C11.7013 32.382 13.9089 32.3619 16.1327 32.3619C18.3605 32.3619 20.5682 32.382 22.7919 32.2569C25.3749 32.1318 27.6673 31.5426 29.5561 29.6538C31.449 27.7609 32.0342 25.4726 32.1593 22.8896C32.2884 20.6658 32.2642 18.4582 32.2642 16.2304ZM16.1287 24.508C11.5479 24.508 7.85103 20.8111 7.85103 16.2304C7.85103 11.6496 11.5479 7.95272 16.1287 7.95272C20.7094 7.95272 24.4063 11.6496 24.4063 16.2304C24.4063 20.8111 20.7094 24.508 16.1287 24.508ZM24.7453 9.54691C23.6758 9.54691 22.8121 8.68322 22.8121 7.61371C22.8121 6.54419 23.6758 5.68051 24.7453 5.68051C25.8148 5.68051 26.6785 6.54419 26.6785 7.61371C26.6788 7.86767 26.6291 8.1192 26.532 8.35389C26.435 8.58858 26.2926 8.80182 26.113 8.9814C25.9334 9.16098 25.7202 9.30336 25.4855 9.4004C25.2508 9.49744 24.9993 9.54723 24.7453 9.54691Z" fill="white"/>
</svg>
