<svg width="36" height="29" viewBox="0 0 36 29" fill="none" xmlns="http://www.w3.org/2000/svg">
<path d="M35.1576 3.80106C33.895 4.36055 32.5386 4.73858 31.1126 4.90945C32.5839 4.02908 33.6847 2.64348 34.2095 1.01119C32.8272 1.83226 31.3143 2.4102 29.7366 2.71989C28.6757 1.58711 27.2704 0.836276 25.739 0.583975C24.2077 0.331673 22.6358 0.592015 21.2675 1.32458C19.8993 2.05715 18.8112 3.22095 18.1721 4.63531C17.533 6.04966 17.3788 7.63544 17.7333 9.14643C14.9324 9.0058 12.1924 8.27779 9.69099 7.00965C7.18963 5.74151 4.98286 3.96159 3.21391 1.7854C2.60906 2.82877 2.26127 4.03847 2.26127 5.3268C2.2606 6.48659 2.54621 7.62862 3.09276 8.65156C3.63931 9.6745 4.42991 10.5467 5.3944 11.1908C4.27584 11.1552 3.18197 10.853 2.20381 10.3093V10.4C2.2037 12.0266 2.76637 13.6032 3.79636 14.8623C4.82634 16.1213 6.2602 16.9852 7.85463 17.3074C6.81698 17.5882 5.72909 17.6296 4.67312 17.4283C5.12297 18.828 5.99924 20.0519 7.17926 20.9288C8.35928 21.8057 9.78398 22.2916 11.2539 22.3186C8.75863 24.2774 5.677 25.3399 2.50473 25.3353C1.94279 25.3354 1.38133 25.3026 0.823242 25.237C4.04328 27.3073 7.79163 28.4061 11.6198 28.4018C24.5787 28.4018 31.6631 17.6688 31.6631 8.36012C31.6631 8.0577 31.6555 7.75225 31.6419 7.44982C33.0199 6.45329 34.2093 5.21928 35.1546 3.8056L35.1576 3.80106Z" fill="white"/>
</svg>
