<svg width="20" height="16" viewBox="0 0 20 16" fill="none" xmlns="http://www.w3.org/2000/svg">
<path d="M19.0652 2.10455C18.3781 2.40903 17.6399 2.61476 16.8639 2.70775C17.6646 2.22864 18.2637 1.47457 18.5493 0.586248C17.797 1.03309 16.9736 1.34761 16.115 1.51615C15.5377 0.899671 14.7729 0.491056 13.9395 0.35375C13.1061 0.216443 12.2507 0.358125 11.506 0.756801C10.7614 1.15548 10.1692 1.78884 9.82144 2.55856C9.47365 3.32827 9.38972 4.19128 9.58266 5.01359C8.05835 4.93705 6.56716 4.54086 5.20587 3.85072C3.84458 3.16057 2.64362 2.19191 1.68093 1.00759C1.35176 1.5754 1.16249 2.23375 1.16249 2.93488C1.16212 3.56606 1.31755 4.18757 1.61499 4.74427C1.91244 5.30097 2.34269 5.77565 2.86759 6.12618C2.25885 6.10681 1.66354 5.94233 1.13121 5.64642V5.69579C1.13115 6.58105 1.43737 7.43906 1.99791 8.12425C2.55844 8.80943 3.33877 9.27958 4.20649 9.45492C3.64178 9.60775 3.04973 9.63026 2.47505 9.52075C2.71987 10.2825 3.19675 10.9486 3.83894 11.4258C4.48113 11.903 5.25647 12.1674 6.05643 12.1821C4.69846 13.2481 3.02138 13.8264 1.29498 13.8238C0.989161 13.8239 0.683605 13.8061 0.379883 13.7703C2.13228 14.8971 4.17221 15.495 6.25557 15.4927C13.308 15.4927 17.1635 9.6516 17.1635 4.58567C17.1635 4.42108 17.1593 4.25485 17.1519 4.09027C17.9019 3.54794 18.5492 2.87636 19.0636 2.10701L19.0652 2.10455Z" fill="white"/>
</svg>
